<?xml version="1.0" encoding="UTF-8" standalone="no"?>
<!-- Created with Inkscape (http://www.inkscape.org/) -->

<svg
   width="41.37759mm"
   height="25.990547mm"
   viewBox="0 0 41.37759 25.990547"
   version="1.1"
   id="svg1"
   xml:space="preserve"
   xmlns="http://www.w3.org/2000/svg"
   xmlns:svg="http://www.w3.org/2000/svg"><defs
     id="defs1" /><g
     id="layer1"
     transform="translate(-80.692821,-90.272708)"><g
       id="g1"
       transform="translate(-32.080139,-44.843206)"><path
         style="fill:#7d7d7d"
         d="m 115.07258,161.08719 c 0,-0.0672 1.16943,-1.21519 1.23944,-1.21669 0.071,-0.002 0.78554,-0.66368 0.9236,-0.85592 0.13794,-0.19206 1.17721,-1.15156 1.56182,-1.44195 0.33274,-0.25122 0.43396,-0.4313 0.24243,-0.4313 h -0.0967 l 0.10615,-0.16199 c 0.0584,-0.0891 0.18197,-0.20121 0.27466,-0.24914 0.18996,-0.0982 0.83347,-0.73332 1.18727,-1.17172 0.12889,-0.15972 0.35096,-0.38591 0.49347,-0.50265 0.14252,-0.11674 0.48773,-0.43144 0.76713,-0.69933 0.2794,-0.2679 0.58267,-0.53481 0.67394,-0.59315 0.0913,-0.0583 0.40945,-0.33656 0.70707,-0.61829 0.29763,-0.28172 0.57173,-0.51223 0.60911,-0.51223 0.0374,0 0.34786,-0.27449 0.68993,-0.60999 0.34207,-0.33549 0.77197,-0.70661 0.95533,-0.82471 0.18335,-0.11809 0.33337,-0.25608 0.33337,-0.30664 0,-0.0506 0.10716,-0.16938 0.23813,-0.26406 0.13096,-0.0947 0.35242,-0.31057 0.49212,-0.47976 0.1397,-0.1692 0.3683,-0.38095 0.508,-0.47056 0.1397,-0.0896 0.35384,-0.30146 0.47586,-0.47076 0.12203,-0.1693 0.30776,-0.35433 0.41275,-0.41119 0.10499,-0.0568 0.28763,-0.18818 0.40587,-0.29185 0.11824,-0.10366 0.2368,-0.18848 0.26347,-0.18848 0.0267,0 0.23361,-0.1643 0.45986,-0.36512 0.22626,-0.20082 0.49346,-0.42718 0.59378,-0.50303 1.00419,-0.75919 1.03769,-1.05654 0.1721,-1.52757 -0.37214,-0.20251 -0.44821,-0.24829 -0.63539,-0.3824 -0.10967,-0.0786 -0.22384,-0.14288 -0.2537,-0.14288 -0.0299,0 -0.0884,-0.0546 -0.13005,-0.12129 -0.0417,-0.0667 -0.1625,-0.14034 -0.26854,-0.16363 -0.10604,-0.0233 -0.20982,-0.0699 -0.23062,-0.10353 -0.0208,-0.0337 -0.15069,-0.13244 -0.28864,-0.21953 -0.13795,-0.0871 -0.30338,-0.20737 -0.36762,-0.2673 -0.0642,-0.0599 -0.199,-0.17075 -0.29947,-0.24626 -0.24913,-0.18725 -0.67581,-0.51569 -0.75816,-0.58361 -0.0371,-0.0306 -0.13216,-0.0903 -0.21118,-0.13256 -0.079,-0.0423 -0.19153,-0.12074 -0.25,-0.17432 -0.20224,-0.1853 -1.1861,-0.84522 -1.26032,-0.84534 -0.041,-7e-5 -0.15528,-0.0675 -0.254,-0.14994 -0.0987,-0.0824 -0.27327,-0.1979 -0.38787,-0.25666 -0.1421,-0.0729 -0.26244,-0.21709 -0.37835,-0.45344 -0.19002,-0.38743 -0.2878,-0.42858 -0.41042,-0.17274 -0.10612,0.22141 -0.26252,0.25131 -0.44164,0.0844 -0.0775,-0.0722 -0.17601,-0.13129 -0.2189,-0.13129 -0.0429,0 -0.0875,-0.0224 -0.0992,-0.0497 -0.0272,-0.064 -0.48502,-0.33128 -0.56732,-0.33128 -0.0345,0 -0.13968,-0.0714 -0.23385,-0.15875 -0.0942,-0.0873 -0.19209,-0.15875 -0.21762,-0.15875 -0.0502,0 -0.59985,-0.36616 -0.7298,-0.48617 -0.0437,-0.0404 -0.16587,-0.11166 -0.27142,-0.15838 -0.10555,-0.0467 -0.19191,-0.10308 -0.19191,-0.12524 0,-0.0222 -0.0857,-0.0758 -0.1905,-0.11921 -0.10477,-0.0434 -0.1905,-0.10168 -0.1905,-0.12952 0,-0.0278 -0.10716,-0.11656 -0.23812,-0.19716 -0.13097,-0.0806 -0.34587,-0.26449 -0.47756,-0.40864 -0.13169,-0.14414 -0.33886,-0.31563 -0.46038,-0.38107 -0.25174,-0.13557 -0.28901,-0.31105 -0.0781,-0.36758 0.21886,-0.0587 0.23688,-0.0516 0.30162,0.11872 0.084,0.22087 0.21708,0.20795 0.1635,-0.0159 -0.023,-0.0961 -0.0581,-0.3064 -0.0781,-0.46745 l -0.0363,-0.29282 0.11028,-0.1683 c 0.0607,-0.0926 0.18535,-0.18609 0.27711,-0.20783 0.0918,-0.0217 0.21558,-0.0819 0.27517,-0.13358 l 0.10834,-0.094 0.10257,0.10257 c 0.0564,0.0564 0.12972,0.10257 0.1629,0.10257 0.0332,0 0.0911,0.0675 0.12864,0.14994 0.0376,0.0825 0.16555,0.1963 0.28439,0.25297 0.1366,0.0651 0.21607,0.14855 0.21607,0.22679 0,0.0699 0.058,0.14215 0.13339,0.16608 0.17723,0.0563 0.28324,-0.0522 0.15505,-0.15854 -0.0539,-0.0447 -0.0979,-0.1188 -0.0979,-0.16464 0,-0.0459 -0.11369,-0.16379 -0.25264,-0.2621 -0.13896,-0.0983 -0.25326,-0.21408 -0.254,-0.25727 -7.5e-4,-0.0432 -0.10137,-0.12031 -0.22361,-0.17138 -0.12224,-0.0511 -0.22225,-0.11485 -0.22225,-0.14171 0,-0.0935 0.33816,-0.33865 0.47025,-0.34089 0.0731,-0.001 0.20444,-0.0431 0.29175,-0.093 0.0873,-0.0499 0.22011,-0.0918 0.29511,-0.093 0.075,-10e-4 0.28165,-0.12369 0.45924,-0.27212 l 0.32287,-0.26988 0.001,-0.17049 c 0.003,-0.39971 0.2071,-0.62392 0.45024,-0.49379 0.0817,0.0437 0.16156,0.0445 0.24013,0.002 l 0.11773,-0.063 0.0835,0.15602 c 0.0459,0.0858 0.13378,0.15602 0.19523,0.15602 0.0615,0 0.15026,0.0385 0.19735,0.0856 0.0471,0.0471 0.21343,0.0873 0.36966,0.0894 0.38101,0.005 0.63396,0.0746 0.78561,0.21593 0.0691,0.0644 0.16372,0.11704 0.21028,0.11704 0.0465,0 0.11718,0.0714 0.15696,0.15875 0.0398,0.0873 0.11061,0.15875 0.15739,0.15875 0.0468,0 0.0851,0.0266 0.0851,0.0592 0,0.0326 0.0641,0.0796 0.14256,0.10447 0.18648,0.0592 0.47298,0.39064 0.51465,0.5954 0.0209,0.10248 0.10418,0.19267 0.2276,0.24636 0.10708,0.0466 0.19469,0.11886 0.19469,0.1606 0,0.15267 1.78208,1.89788 2.01272,1.97109 0.0761,0.0241 0.1758,0.12859 0.22162,0.23212 0.0458,0.10353 0.13335,0.20411 0.19449,0.22352 0.0611,0.0194 0.11117,0.0577 0.11117,0.0851 0,0.0638 0.26771,0.33326 0.73054,0.73539 0.20097,0.17463 0.39743,0.35459 0.43656,0.39993 0.0391,0.0453 0.24974,0.2628 0.46803,0.48326 0.21828,0.22047 0.39687,0.43251 0.39687,0.47121 0,0.0825 -0.18339,0.0246 -0.30616,-0.0967 -0.0462,-0.0456 -0.13266,-0.0829 -0.19225,-0.0829 -0.0596,0 -0.1647,-0.039 -0.23359,-0.0867 -0.0689,-0.0477 -0.19135,-0.10733 -0.27213,-0.13255 l -0.14688,-0.0459 0.0832,0.13326 c 0.0458,0.0733 0.12755,0.14733 0.18172,0.16452 0.0542,0.0172 0.25298,0.17404 0.44181,0.34854 0.18882,0.17451 0.36519,0.31728 0.39193,0.31728 0.14774,0 0.61467,0.41458 0.64657,0.57409 0.0215,0.10751 0.11178,0.22268 0.22865,0.29172 l 0.19311,0.11408 v 0.93316 0.93316 l -0.1905,0.1603 c -0.29059,0.24452 -0.24415,0.29544 0.26988,0.29595 0.2532,2.4e-4 0.65259,0.0186 0.88752,0.0408 l 0.42714,0.0403 0.0405,-0.10564 c 0.0258,-0.0673 -0.018,-0.16416 -0.12081,-0.26699 l -0.16135,-0.16135 -0.0206,-0.51063 c -0.0113,-0.28085 -3e-5,-0.54339 0.0251,-0.58343 l 0.0457,-0.0728 0.1329,0.0824 c 0.0731,0.0453 0.18113,0.0677 0.24007,0.0498 l 0.10715,-0.0326 0.40704,0.63218 c 0.45643,0.7089 0.52897,0.78652 0.79946,0.85549 0.28259,0.072 1.29895,0.0879 1.34036,0.0209 0.0515,-0.0834 -0.0982,-0.24291 -0.228,-0.24291 -0.14633,0 -0.52972,-0.36692 -0.66827,-0.63955 -0.0608,-0.11973 -0.23566,-0.40728 -0.38848,-0.63899 -0.27417,-0.41568 -0.33204,-0.56296 -0.22123,-0.56296 0.0311,0 0.20188,-0.13059 0.37941,-0.29019 l 0.32277,-0.2902 0.0424,-0.31953 0.0424,-0.31952 0.62618,-0.63455 c 0.34439,-0.34901 0.64751,-0.66982 0.67358,-0.71291 0.0261,-0.0431 0.26172,-0.25298 0.52366,-0.46641 0.26194,-0.21343 0.57963,-0.49692 0.70599,-0.62999 0.21194,-0.2232 0.88441,-0.88968 1.99276,-1.97501 0.24448,-0.2394 0.53023,-0.48948 0.635,-0.55574 0.10478,-0.0663 0.32852,-0.2499 0.49722,-0.40808 0.38465,-0.3607 0.94919,-0.87649 1.28078,-1.17018 0.1397,-0.12373 0.43235,-0.38296 0.65032,-0.57608 0.41237,-0.36532 0.49041,-0.4045 0.54122,-0.27173 0.0285,0.0744 -0.0679,0.17299 -0.67229,0.68769 l -0.24275,0.20671 0.0342,0.13098 c 0.0229,0.0875 -0.0214,0.18907 -0.1333,0.30586 l -0.16755,0.17489 -0.24427,-0.0391 -0.24427,-0.0391 0.0372,0.0971 c 0.0245,0.0638 -0.0458,0.15911 -0.20518,0.27818 -0.13333,0.0996 -0.252,0.20274 -0.26372,0.22915 -0.0117,0.0264 -0.0429,0.0346 -0.0694,0.0183 -0.0264,-0.0163 -0.3072,0.21208 -0.6239,0.5076 -0.31671,0.29553 -0.6037,0.53732 -0.63776,0.53732 -0.09,0 -0.52091,0.45807 -0.52091,0.55378 0,0.19427 0.57723,-0.1361 1.016,-0.58149 1.00364,-1.01878 1.86673,-1.79041 1.15383,-1.03157 -0.25851,0.27518 -0.17615,0.37503 0.12738,0.15441 0.22079,-0.16047 0.2563,-0.19292 1.25093,-1.143 0.74114,-0.70794 0.87534,-0.79503 0.80728,-0.52388 -0.0272,0.10819 -0.0136,0.15875 0.0425,0.15875 0.0753,0 0.18106,-0.0804 0.76568,-0.58266 0.10879,-0.0934 0.2249,-0.15316 0.25803,-0.13269 0.0553,0.0342 -0.0184,0.10756 -0.46861,0.4668 -0.0873,0.0697 -0.23019,0.18386 -0.3175,0.25375 -0.0873,0.0699 -0.25162,0.19987 -0.36512,0.28884 -0.11351,0.089 -0.20638,0.18779 -0.20638,0.21961 0,0.1139 0.16575,0.0546 0.37077,-0.13265 0.11471,-0.10477 0.26046,-0.1905 0.32387,-0.1905 0.13457,0 0.23454,-0.10668 0.26775,-0.28575 0.0141,-0.0762 0.0769,-0.12971 0.15695,-0.13379 0.0734,-0.004 0.16355,-0.0254 0.20041,-0.0482 0.0384,-0.0237 0.0971,0.0497 0.13731,0.17159 0.0411,0.12438 0.14225,0.24931 0.24325,0.30027 0.22798,0.11503 0.63,0.42172 0.88943,0.67852 0.11467,0.1135 0.23612,0.20637 0.26988,0.20637 0.0338,0 0.0614,0.098 0.0614,0.21772 0,0.11974 0.0429,0.26057 0.0952,0.31296 0.1248,0.1248 0.12017,0.20709 -0.0251,0.44608 l -0.12037,0.19799 0.0819,0.28575 c 0.045,0.15717 0.10932,0.40005 0.14287,0.53975 0.0335,0.1397 0.0685,0.28258 0.0778,0.3175 0.009,0.0349 0.0134,0.22107 0.009,0.41365 l -0.008,0.35014 -0.23812,0.10546 c -0.13097,0.058 -0.37282,0.2362 -0.53745,0.39598 -0.16462,0.15979 -0.33607,0.29083 -0.381,0.29121 -0.0449,3.8e-4 -0.26535,0.12896 -0.48984,0.28575 -0.39335,0.27472 -0.76682,0.37531 -0.85625,0.23061 -0.0328,-0.0531 0.87609,-0.77105 0.97618,-0.77105 0.0277,0 0.0874,-0.0445 0.13252,-0.0989 0.0934,-0.11254 0.46873,-0.28208 0.62449,-0.28208 0.11435,0 0.45197,-0.28652 0.45197,-0.38357 0,-0.17893 -0.67858,0.0887 -1.11077,0.43816 -0.10452,0.0845 -0.31194,0.20589 -0.46095,0.26976 -0.149,0.0639 -0.4088,0.2451 -0.57732,0.40273 -0.16852,0.15763 -0.41448,0.33176 -0.54657,0.38696 l -0.24018,0.10035 -1.26379,-0.0133 c -1.49167,-0.0157 -1.34124,-0.10556 -1.35537,0.80932 l -0.0115,0.74255 -0.18809,0.16342 c -0.10344,0.0899 -0.2372,0.24147 -0.29724,0.33688 -0.06,0.0954 -0.31458,0.31772 -0.56564,0.49404 -0.25107,0.17632 -0.50438,0.39359 -0.56293,0.48284 -0.0585,0.0892 -0.25692,0.25268 -0.44085,0.3632 -0.33149,0.1992 -0.50556,0.38214 -0.43283,0.45487 0.0208,0.0208 0.12277,-0.0136 0.22667,-0.0763 0.3678,-0.22214 0.92784,-0.60327 1.01602,-0.69145 0.0492,-0.0492 0.13735,-0.0902 0.19597,-0.0911 0.0586,-9.7e-4 0.21865,-0.0866 0.35561,-0.19019 0.13696,-0.10363 0.26298,-0.17446 0.28004,-0.1574 0.0617,0.0617 -0.43751,0.48245 -0.71227,0.60023 -0.15478,0.0663 -0.30842,0.16888 -0.34142,0.22785 -0.033,0.059 -0.21697,0.21112 -0.40883,0.33812 -0.62908,0.41641 -1.90344,1.41176 -2.26055,1.7656 -0.0454,0.045 -0.12512,0.1056 -0.1772,0.13474 -0.14032,0.0785 -0.04,0.26769 0.16349,0.3084 0.0954,0.0191 0.29544,0.16052 0.44447,0.3143 0.25982,0.2681 0.40216,0.33761 0.46921,0.22913 0.0339,-0.0548 -0.34583,-0.48176 -0.51034,-0.57382 -0.0557,-0.0312 -0.09,-0.0904 -0.0763,-0.13165 0.0299,-0.0897 0.50729,0.21175 0.78743,0.49715 0.10354,0.10548 0.22397,0.19257 0.26763,0.19354 0.0437,9.7e-4 0.0794,0.0303 0.0794,0.0653 0,0.0349 0.0357,0.0635 0.0794,0.0636 0.0437,4e-5 0.1651,0.0748 0.26987,0.16616 0.10478,0.0914 0.3048,0.23828 0.4445,0.32653 0.1397,0.0882 0.32544,0.23821 0.41275,0.33326 0.0873,0.095 0.24448,0.21681 0.34925,0.27058 0.19191,0.0985 0.3197,0.19989 0.73384,0.58226 0.1242,0.11468 0.28788,0.24172 0.36372,0.28231 0.0758,0.0406 0.21499,0.15089 0.30922,0.24513 0.12149,0.12149 0.17957,0.14663 0.19964,0.0864 0.0156,-0.0467 -0.0109,-0.1125 -0.0588,-0.14621 -0.0597,-0.042 -0.0272,-0.0481 0.10339,-0.0194 0.10478,0.0231 0.21335,0.0825 0.24128,0.13214 0.0279,0.0496 0.0878,0.0902 0.13312,0.0902 0.0894,0 0.27639,0.0941 0.7686,0.3866 0.17463,0.10378 0.47466,0.2625 0.66675,0.3527 0.19209,0.0902 0.44021,0.23223 0.55139,0.31561 0.11117,0.0834 0.24039,0.15159 0.28716,0.15159 0.0468,0 0.18696,0.084 0.31156,0.18674 0.1246,0.10271 0.30139,0.20552 0.39286,0.22848 0.0915,0.023 0.19957,0.0818 0.2402,0.13076 0.0406,0.049 0.0994,0.089 0.13061,0.089 0.0312,0 0.23344,0.12859 0.44943,0.28575 0.21598,0.15717 0.41693,0.28575 0.44655,0.28575 0.0616,0 0.76162,0.43803 0.80974,0.50667 0.0175,0.0249 0.10506,0.0632 0.19467,0.0851 0.0896,0.0219 0.22768,0.096 0.30684,0.16463 0.0792,0.0686 0.22345,0.14229 0.32063,0.16364 0.1848,0.0406 0.44786,0.24761 0.44786,0.35246 0,0.0792 -1.9e-4,0.0792 -0.44559,-0.0447 -0.2091,-0.0581 -0.39848,-0.0874 -0.42084,-0.065 -0.0582,0.0582 0.1024,0.23423 0.21381,0.23423 0.1593,0 0.52562,0.41599 0.52562,0.5969 0,0.21307 -0.0492,0.20809 -0.38735,-0.0392 -0.15367,-0.11239 -0.49371,-0.34355 -0.75565,-0.51368 -0.26194,-0.17013 -0.50482,-0.34458 -0.53975,-0.38767 -0.0654,-0.0807 -0.86863,-0.5453 -0.94273,-0.5453 -0.15184,0 0.0154,0.22455 0.32361,0.43442 0.20081,0.13675 0.4222,0.31219 0.49197,0.38986 0.0698,0.0777 0.30512,0.22205 0.52301,0.32085 0.2179,0.0988 0.56807,0.3119 0.77816,0.47357 l 0.38199,0.29393 -0.0293,0.20256 c -0.0161,0.11141 -0.0721,0.31686 -0.12435,0.45656 -0.0523,0.1397 -0.0963,0.29942 -0.0978,0.35493 -0.002,0.0555 -0.10562,0.19449 -0.23131,0.30886 -0.12568,0.11437 -0.2669,0.29983 -0.31383,0.41214 -0.0469,0.1123 -0.13147,0.24249 -0.18788,0.28931 -0.0564,0.0468 -0.0979,0.15885 -0.0922,0.24895 0.0203,0.32032 -0.002,0.38606 -0.13008,0.38606 -0.16166,0 -0.16056,0.0689 0.004,0.25878 0.32365,0.37317 -0.4418,-0.0476 -0.81467,-0.44783 -0.0637,-0.0684 -0.21465,-0.13248 -0.33532,-0.14231 l -0.2194,-0.0179 0.0163,0.14972 c 0.009,0.0823 0.14471,0.27993 0.30162,0.43908 0.15691,0.15916 0.28529,0.31325 0.28529,0.34242 0,0.0292 0.0305,0.053 0.0678,0.053 0.10042,0 0.56476,0.40061 0.56609,0.48838 0.003,0.20305 -0.29758,0.13833 -0.57141,-0.12301 -0.0879,-0.0839 -0.2379,-0.20369 -0.33337,-0.26624 -0.0955,-0.0626 -0.17358,-0.15331 -0.17358,-0.20168 0,-0.0484 -0.0429,-0.088 -0.0952,-0.088 -0.18155,0 -0.0928,0.13574 0.41275,0.63119 0.2794,0.27383 0.508,0.531 0.508,0.5715 0,0.11068 -0.13689,0.0152 -0.57174,-0.39884 -0.23542,-0.22414 -0.42456,-0.35613 -0.47991,-0.33489 -0.0502,0.0193 -0.0913,0.007 -0.0913,-0.0265 0,-0.0338 -0.029,-0.0615 -0.0644,-0.0615 -0.0354,0 0.0112,0.1143 0.10369,0.254 0.0924,0.1397 0.18869,0.254 0.21388,0.254 0.0736,0 0.38183,0.30511 0.38183,0.37797 0,0.12691 -0.14073,0.0652 -0.42782,-0.18747 -0.15871,-0.1397 -0.32639,-0.254 -0.37264,-0.254 -0.0462,0 -0.11793,-0.0643 -0.15931,-0.14287 -0.14258,-0.27075 -0.34588,-0.32532 -0.28332,-0.0761 l 0.0407,0.16208 -0.14092,-0.0754 c -0.0775,-0.0415 -0.19811,-0.1287 -0.26802,-0.19382 -0.0699,-0.0651 -0.14702,-0.11842 -0.17136,-0.11842 -0.0243,0 -0.24042,-0.19996 -0.48015,-0.44437 -0.23974,-0.24441 -0.47875,-0.44527 -0.53114,-0.44636 -0.15507,-0.003 -0.50948,-0.36659 -0.63687,-0.65294 -0.11879,-0.26702 -0.25664,-0.4183 -0.4997,-0.54839 -0.16417,-0.0879 -0.58041,-0.46717 -1.03087,-0.93941 -0.26913,-0.28213 -0.96273,-0.89115 -1.26665,-1.11217 -0.15436,-0.11226 -0.29018,-0.22599 -0.30183,-0.25273 -0.0116,-0.0267 -0.0609,-0.0486 -0.10949,-0.0486 -0.0486,0 -0.13266,-0.0857 -0.18684,-0.1905 l -0.0985,-0.1905 0.081,3e-4 c 0.0446,1.6e-4 0.16674,0.0791 0.27151,0.17543 0.10478,0.0963 0.27259,0.22774 0.37292,0.29203 0.18411,0.11797 0.48544,0.38111 0.93685,0.81812 0.23939,0.23175 0.37298,0.29673 0.37298,0.18142 0,-0.0312 -0.0429,-0.0732 -0.0952,-0.0933 -0.0524,-0.0201 -0.0953,-0.0888 -0.0953,-0.15264 0,-0.0641 -0.21865,-0.31379 -0.4883,-0.55761 -0.26857,-0.24285 -0.66578,-0.61299 -0.88269,-0.82254 -0.54482,-0.52632 -1.26518,-1.1471 -1.78863,-1.54136 -0.10542,-0.0794 -0.33225,-0.28275 -0.50406,-0.45187 -0.17182,-0.16913 -0.43047,-0.38204 -0.57479,-0.47314 -0.14431,-0.0911 -0.44977,-0.35211 -0.6788,-0.58001 -0.22902,-0.2279 -0.43968,-0.41437 -0.46813,-0.41437 -0.0284,0 -0.1151,-0.0857 -0.19256,-0.1905 -0.0775,-0.10477 -0.17571,-0.19158 -0.21832,-0.19291 -0.0426,-0.001 -0.27666,-0.20135 -0.52011,-0.4445 -0.29754,-0.29716 -0.49177,-0.44209 -0.59249,-0.44209 -0.26379,0 -1.53385,0.93209 -1.53582,1.12713 -0.001,0.11059 0.15764,0.0993 0.25512,-0.0182 0.21349,-0.25724 1.07758,-0.63728 1.07758,-0.47394 0,0.0349 -0.0214,0.0637 -0.0476,0.0641 -0.0262,3e-4 -0.14884,0.0965 -0.27255,0.21379 -0.1237,0.11728 -0.31406,0.25933 -0.42302,0.31568 -0.10895,0.0563 -0.25844,0.17915 -0.33219,0.2729 -0.0737,0.0938 -0.38287,0.36845 -0.68694,0.61043 -0.30407,0.24197 -0.61058,0.49531 -0.68114,0.56297 -0.0706,0.0677 -0.28545,0.25395 -0.47754,0.41398 -0.19209,0.16003 -0.52993,0.45206 -0.75076,0.64895 -0.22084,0.1969 -0.51373,0.42519 -0.65088,0.50732 -0.13715,0.0821 -0.24936,0.17499 -0.24936,0.20637 0,0.0314 -0.0378,0.0571 -0.084,0.0571 -0.0462,0 -0.21477,0.13574 -0.37464,0.30163 -0.15988,0.16589 -0.42795,0.40164 -0.59573,0.52387 -0.16777,0.12224 -0.56405,0.47943 -0.88061,0.79375 -0.31656,0.31433 -0.73222,0.67833 -0.92368,0.80889 -0.19147,0.13056 -0.51798,0.41116 -0.7256,0.62357 -0.20761,0.2124 -0.49336,0.47626 -0.635,0.58635 -0.14163,0.11008 -0.31467,0.26069 -0.38452,0.33468 -0.21095,0.22345 -0.59444,0.48579 -0.67223,0.45986 -0.0402,-0.0134 0.0767,-0.16611 0.25968,-0.33935 0.18301,-0.17325 0.44822,-0.43644 0.58935,-0.58487 0.14114,-0.14843 0.2894,-0.26988 0.32947,-0.26988 0.0401,0 0.28875,-0.20716 0.55261,-0.46037 0.26387,-0.25321 0.69077,-0.65568 0.94869,-0.89438 0.25791,-0.2387 0.74039,-0.69776 1.07218,-1.02015 0.33179,-0.32238 0.74109,-0.68429 0.90957,-0.80425 0.89317,-0.63595 1.50343,-1.17838 1.50343,-1.33634 0,-0.11039 -0.35633,0.0883 -0.67369,0.37568 -0.18104,0.16394 -0.41071,0.36181 -0.51036,0.43972 -0.0997,0.0779 -0.25264,0.19774 -0.33995,0.26629 -0.0873,0.0685 -0.34449,0.26764 -0.5715,0.44245 -0.52152,0.40157 -1.13291,0.90733 -1.54968,1.28194 -0.17796,0.15995 -0.38718,0.33362 -0.46494,0.38592 -0.0778,0.0523 -0.32063,0.25627 -0.53975,0.45327 -0.21911,0.19701 -0.69297,0.62342 -1.05303,0.94758 -0.36006,0.32417 -0.76726,0.65583 -0.90488,0.73703 -0.13762,0.0812 -0.25022,0.1739 -0.25022,0.206 0,0.0321 -0.23574,0.21271 -0.52387,0.40135 -0.28814,0.18864 -0.68695,0.50314 -0.88625,0.69888 -0.34227,0.33615 -0.64828,0.51523 -0.37,0.21654 0.0746,-0.08 0.10608,-0.1631 0.074,-0.19513 -0.0719,-0.0719 -0.56185,0.058 -0.59514,0.15785 -0.0164,0.049 -0.0391,0.0524 -0.0655,0.01 -0.0428,-0.0692 0.54242,-0.72206 0.64725,-0.72206 0.0338,0 0.20502,-0.13573 0.38054,-0.30162 0.17553,-0.16589 0.51287,-0.47744 0.74964,-0.69233 0.23678,-0.21489 0.59043,-0.53636 0.7859,-0.71437 0.19546,-0.17802 0.3812,-0.3237 0.41275,-0.32373 0.0547,-4e-5 0.32947,-0.22861 0.76627,-0.63741 0.11049,-0.10342 0.22021,-0.18804 0.24382,-0.18804 0.0702,0 0.27628,-0.28108 0.24416,-0.33305 -0.0687,-0.11124 -0.23548,-0.028 -0.58223,0.29082 -0.20267,0.18632 -0.53818,0.45854 -0.74557,0.60494 -0.2074,0.14641 -0.49572,0.35829 -0.64072,0.47087 -0.14499,0.11257 -0.43617,0.3125 -0.64707,0.44429 -0.21089,0.13179 -0.40149,0.28896 -0.42355,0.34925 -0.0461,0.126 -1.10205,1.00988 -1.3951,1.16776 -0.10783,0.0581 -0.23222,0.1732 -0.27642,0.25579 -0.0442,0.0826 -0.15751,0.18476 -0.25179,0.22705 -0.0943,0.0423 -0.27731,0.17459 -0.40671,0.29399 -0.1294,0.1194 -0.35085,0.26808 -0.49212,0.33041 -0.14127,0.0623 -0.25686,0.13809 -0.25686,0.16835 0,0.0303 -0.029,0.0371 -0.0645,0.0152 -0.12054,-0.0745 0.14727,-0.40562 0.62846,-0.77703 0.53403,-0.4122 0.96005,-0.81217 0.96005,-0.90135 0,-0.17757 -0.16637,-0.0898 -0.56132,0.29606 -0.39097,0.38199 -0.84112,0.7508 -1.14545,0.93844 -0.0566,0.0349 -0.20786,0.14923 -0.33604,0.254 -0.12819,0.10478 -0.37466,0.29947 -0.54772,0.43266 -0.17306,0.13318 -0.52017,0.44085 -0.77136,0.68371 -0.41207,0.39842 -0.57511,0.48524 -0.57511,0.30627 0,-0.0342 0.12144,-0.18835 0.26988,-0.34264 0.14843,-0.15428 0.31868,-0.33181 0.37834,-0.3945 0.0597,-0.0627 0.23927,-0.21401 0.39913,-0.33625 0.15986,-0.12223 0.38251,-0.29892 0.49478,-0.39262 l 0.20412,-0.17038 -0.0761,-0.0772 -0.0761,-0.0772 -0.15152,0.0993 c -0.0833,0.0546 -0.23483,0.18986 -0.33664,0.30057 -0.46149,0.50184 -2.12186,1.65164 -2.12186,1.46938 z m 3.21038,-2.06994 c 0.68879,-0.57533 0.9071,-0.85992 0.65964,-0.85992 -0.0862,0 -0.97697,0.8268 -1.0013,0.92941 -0.0322,0.13598 0.13685,0.10159 0.34166,-0.0695 z m 3.54966,-0.66503 c 0.0636,-0.10294 -0.0746,-0.13423 -0.15662,-0.0354 l -0.0785,0.0945 h 0.0993 c 0.0546,0 0.11572,-0.0266 0.13581,-0.0591 z m 0.90148,-0.78675 c 0.11058,-0.11104 0.30364,-0.29891 0.42902,-0.4175 0.23434,-0.22165 0.28321,-0.32414 0.15458,-0.32414 -0.11862,0 -0.48612,0.30666 -0.52886,0.44131 -0.0216,0.0681 -0.14035,0.18633 -0.26383,0.26265 -0.27026,0.16703 -0.46743,0.36986 -0.46743,0.48085 0,0.1 0.39012,-0.15559 0.67652,-0.44317 z m 23.32648,0.18135 c 0,-0.0954 -0.23977,-0.25988 -0.29633,-0.20332 -0.0173,0.0173 4.4e-4,0.091 0.0394,0.1639 0.0811,0.15155 0.25691,0.17853 0.25691,0.0394 z m -26.25725,-0.22449 c 0.0216,-0.0349 0.009,-0.0635 -0.028,-0.0635 -0.037,0 -0.0673,0.0286 -0.0673,0.0635 0,0.0349 0.0126,0.0635 0.028,0.0635 0.0154,0 0.0457,-0.0286 0.0673,-0.0635 z m 1.28905,-0.0127 c 0.0918,-0.0918 0.099,-0.1778 0.0149,-0.1778 -0.0337,0 -0.0918,0.0572 -0.12923,0.127 -0.0749,0.13987 -0.006,0.17067 0.1143,0.0508 z m -0.2413,-0.18459 c 0,-0.0312 -0.0429,-0.0567 -0.0952,-0.0567 -0.0524,0 -0.0953,0.042 -0.0953,0.0933 0,0.0568 0.0372,0.079 0.0953,0.0567 0.0524,-0.0201 0.0952,-0.0621 0.0952,-0.0933 z M 120.6917,156.761 c 0.10003,-0.10441 0.16223,-0.20949 0.13821,-0.2335 -0.0464,-0.0464 -0.42333,0.28448 -0.42333,0.37171 0,0.10043 0.10546,0.0493 0.28512,-0.13821 z m -0.85662,-0.0651 0.0952,-0.0625 -0.0931,-0.0599 c -0.0598,-0.0385 -0.12225,-0.0357 -0.17462,0.008 -0.17767,0.14745 -0.0285,0.24657 0.17249,0.11462 z m 1.23825,-0.31653 c 0.0216,-0.0349 0.0107,-0.0635 -0.0242,-0.0635 -0.0349,0 -0.0812,0.0286 -0.10275,0.0635 -0.0216,0.0349 -0.0107,0.0635 0.0243,0.0635 0.0349,0 0.0812,-0.0286 0.10274,-0.0635 z m 0.83856,-0.0958 c 0.13252,-0.0876 0.39052,-0.29476 0.57335,-0.46038 0.18282,-0.16561 0.54828,-0.47257 0.81214,-0.68212 0.26386,-0.20955 0.68578,-0.55298 0.9376,-0.76319 0.25182,-0.2102 0.57215,-0.45605 0.71185,-0.54633 0.1397,-0.0903 0.5179,-0.41121 0.84045,-0.71318 0.32255,-0.30198 0.6083,-0.54909 0.635,-0.54913 0.0267,-5e-5 0.17714,-0.114 0.3343,-0.25323 0.15716,-0.13923 0.39237,-0.34636 0.52268,-0.46029 0.13031,-0.11393 0.37824,-0.34288 0.55095,-0.50877 0.17272,-0.16589 0.33956,-0.30163 0.37076,-0.30163 0.0312,0 0.14487,-0.0786 0.25259,-0.17462 0.10772,-0.096 0.29861,-0.26019 0.42419,-0.36477 0.26068,-0.21708 0.29347,-0.35049 0.0855,-0.34767 -0.0876,10e-4 -0.37612,0.20959 -0.74613,0.53901 -0.33179,0.29539 -0.63182,0.53754 -0.66675,0.53811 -0.0349,5.8e-4 -0.1778,0.10717 -0.3175,0.23687 -0.21185,0.19669 -0.78342,0.67236 -1.61925,1.34755 -0.0873,0.0705 -0.3302,0.28531 -0.53975,0.4773 -0.20955,0.19198 -0.43815,0.34987 -0.508,0.35086 -0.0732,10e-4 -0.41292,0.27713 -0.80242,0.65221 -0.37149,0.35772 -0.77117,0.73613 -0.8882,0.8409 -0.81605,0.73065 -1.05389,0.96095 -1.15724,1.12053 -0.14394,0.22226 -0.11421,0.22563 0.19392,0.022 z m -1.56881,-0.0356 c 0,-0.0298 0.0622,-0.11219 0.13825,-0.18303 0.076,-0.0708 0.11825,-0.14881 0.0938,-0.17327 -0.0245,-0.0245 -0.0883,0.0181 -0.14185,0.0946 -0.0536,0.0765 -0.13695,0.13904 -0.18529,0.13904 -0.1076,0 -0.17984,0.10524 -0.12886,0.18773 0.0429,0.0694 0.22396,0.0169 0.22396,-0.0651 z m 1.24107,-0.31774 c 0.0229,-0.0371 0.0247,-0.0844 0.004,-0.1051 -0.0442,-0.0442 -0.2925,0.16688 -0.2925,0.24874 0,0.0667 0.22907,-0.0474 0.28857,-0.14364 z m 1.55109,-0.11996 c 0.0514,-0.0325 0.0721,-0.0803 0.0461,-0.10637 -0.026,-0.026 -0.0956,0.001 -0.15464,0.0601 -0.11477,0.11477 -0.0461,0.14409 0.10853,0.0463 z m 0.54678,-0.42287 c 0.2991,-0.2451 0.35535,-0.34927 0.16115,-0.29849 -0.14974,0.0392 -0.63425,0.52838 -0.52329,0.52838 0.0449,0 0.20783,-0.10345 0.36214,-0.22989 z m 1.26704,0.12734 c 0.16195,-0.10611 0.21278,-0.27845 0.0821,-0.27845 -0.10543,0 -0.30663,0.19396 -0.30663,0.2956 0,0.11019 0.0341,0.10759 0.22448,-0.0171 z m -3.6187,-0.19247 c 0.18827,-0.20314 0.1896,-0.21298 0.0287,-0.21298 -0.1323,0 -0.381,0.20726 -0.381,0.3175 0,0.12118 0.19739,0.0626 0.35228,-0.10452 z m 4.03049,-0.24626 c 0.0442,-0.0532 0.0627,-0.11445 0.0411,-0.13605 -0.0461,-0.0461 -0.23283,0.0959 -0.23283,0.17711 0,0.0875 0.1035,0.0653 0.19177,-0.0411 z m -0.17772,-0.29859 c 0.097,-0.0993 0.17645,-0.20809 0.17645,-0.24181 0,-0.0976 -0.117,-0.0713 -0.24298,0.0547 -0.0638,0.0638 -0.16379,0.13433 -0.22225,0.15676 -0.0585,0.0224 -0.10627,0.0979 -0.10627,0.16778 v 0.127 l 0.1093,-0.0419 c 0.0601,-0.0231 0.18871,-0.12317 0.28575,-0.22245 z m 1.00195,-0.33711 c 0,-0.0162 -0.0571,-0.0295 -0.127,-0.0295 -0.0718,0 -0.127,0.0423 -0.127,0.0975 v 0.0975 l 0.127,-0.068 c 0.0699,-0.0374 0.127,-0.0813 0.127,-0.0975 z m -0.3403,-0.1934 c 0.2178,-0.23093 0.23474,-0.36981 0.0366,-0.30028 -0.18447,0.0647 -0.45067,0.34678 -0.41501,0.43971 0.0535,0.13949 0.14822,0.1046 0.37837,-0.13943 z m 20.97569,-0.41155 c -0.0362,-0.0677 -0.0968,-0.12307 -0.13462,-0.12307 -0.0378,0 -0.16878,-0.0878 -0.29103,-0.19515 -0.12225,-0.10734 -0.44035,-0.30437 -0.70688,-0.43785 -0.26654,-0.13348 -0.63182,-0.32426 -0.81174,-0.42397 -0.93851,-0.52008 -1.00052,-0.54491 -0.9351,-0.37442 0.0404,0.10528 0.70406,0.51987 1.29398,0.80834 0.15716,0.0769 0.30004,0.15619 0.3175,0.17631 0.0175,0.0201 0.10319,0.0731 0.1905,0.11777 0.39565,0.20234 0.55179,0.2941 0.71544,0.42046 0.0966,0.0746 0.23241,0.13992 0.30175,0.14514 l 0.12606,0.01 z m -21.06543,-0.1457 c 0.15121,-0.18759 0.13956,-0.24981 -0.0303,-0.16194 -0.1907,0.0986 -0.36513,0.25422 -0.36513,0.3257 0,0.0967 0.27847,-0.0186 0.39546,-0.16376 z m 1.31904,-0.0726 0.0791,-0.0952 h -0.10302 c -0.0567,0 -0.10303,0.0429 -0.10303,0.0952 0,0.0524 0.0108,0.0953 0.024,0.0953 0.0132,0 0.0596,-0.0429 0.10303,-0.0953 z m 0.55959,-0.47228 c 0.0159,-0.0476 -0.008,-0.0714 -0.0556,-0.0556 -0.0458,0.0153 -0.0958,0.0653 -0.11112,0.11113 -0.0159,0.0476 0.008,0.0714 0.0556,0.0556 0.0458,-0.0153 0.0958,-0.0653 0.11112,-0.11113 z m 0.48816,-0.38497 c 0.0216,-0.0349 -0.004,-0.0635 -0.056,-0.0635 -0.0524,0 -0.11291,0.0286 -0.1345,0.0635 -0.0216,0.0349 0.004,0.0635 0.056,0.0635 0.0524,0 0.11291,-0.0286 0.13449,-0.0635 z m 15.25512,-0.29784 c -0.059,-0.059 -0.12863,-0.0861 -0.15464,-0.06 -0.026,0.026 -0.005,0.0739 0.0461,0.10637 0.15459,0.0978 0.2233,0.0685 0.10853,-0.0463 z m -0.56259,-0.50387 c -0.21891,-0.22586 -0.39375,-0.31188 -0.5002,-0.24609 -0.0796,0.0492 0.0179,0.15229 0.30155,0.31893 0.1135,0.0667 0.20637,0.14277 0.20637,0.16907 0,0.0263 0.0448,0.0306 0.0995,0.01 l 0.0995,-0.0382 z m 0.91387,-0.005 c -0.0578,-0.0882 -0.22877,-0.21339 -0.37996,-0.2782 -0.15119,-0.0648 -0.29163,-0.16145 -0.31208,-0.21476 -0.0397,-0.10358 -0.34111,-0.13697 -0.34111,-0.0378 0,0.10145 0.95446,0.76163 1.04879,0.72543 l 0.0894,-0.0343 z m -2.43015,-0.0213 c 0,-0.0365 -0.0885,-0.11513 -0.19666,-0.17462 -0.10816,-0.0595 -0.31533,-0.19686 -0.46037,-0.30525 -0.34184,-0.25545 -0.97336,-0.55341 -1.05976,-0.50001 -0.10231,0.0632 0.0306,0.19154 0.43836,0.42335 0.19672,0.11183 0.48627,0.29704 0.64343,0.41158 0.2751,0.2005 0.635,0.28265 0.635,0.14495 z m -12.1285,-0.0605 c 0,-0.0349 -0.0126,-0.0635 -0.028,-0.0635 -0.0154,0 -0.0457,0.0286 -0.0673,0.0635 -0.0216,0.0349 -0.009,0.0635 0.028,0.0635 0.037,0 0.0673,-0.0286 0.0673,-0.0635 z m 12.7635,-0.4725 c 0,-0.0154 -0.0286,-0.0457 -0.0635,-0.0673 -0.0349,-0.0216 -0.0635,-0.009 -0.0635,0.028 0,0.037 0.0286,0.0672 0.0635,0.0672 0.0349,0 0.0635,-0.0126 0.0635,-0.028 z m -0.77556,-0.61939 c -0.11155,-0.168 -0.24044,-0.22206 -0.24044,-0.10085 0,0.11387 0.12766,0.24024 0.2427,0.24024 h 0.0903 z m -1.70174,-0.0352 c -0.001,-0.0628 -0.67283,-0.65088 -0.74357,-0.65088 -0.0302,0 -0.21956,-0.13924 -0.42084,-0.30943 -0.20127,-0.17018 -0.46435,-0.36242 -0.58462,-0.42719 -0.12027,-0.0648 -0.21867,-0.13877 -0.21867,-0.16445 0,-0.0434 -0.53441,-0.43791 -0.95915,-0.70815 l -0.18385,-0.11697 v 0.10062 c 0,0.12951 0.7782,0.89759 1.07464,1.06067 0.12491,0.0687 0.59859,0.38053 1.05261,0.69292 0.76601,0.52704 0.98548,0.64373 0.98345,0.52286 z m 2.1598,-0.0777 c -0.0949,-0.0732 -0.16826,-0.0952 -0.18236,-0.0547 -0.0277,0.0793 0.10932,0.17827 0.24586,0.17764 0.063,-2.9e-4 0.0414,-0.042 -0.0635,-0.12289 z m -1.4605,-0.54148 c -0.0435,-0.0524 -0.10763,-0.0953 -0.14255,-0.0953 -0.0354,0 -0.0285,0.0421 0.0155,0.0953 0.0435,0.0524 0.10763,0.0952 0.14255,0.0952 0.0354,0 0.0286,-0.0421 -0.0155,-0.0952 z m -0.508,-0.41579 c 0,-0.10083 -0.33411,-0.37367 -0.46037,-0.37595 -0.15301,-0.003 -0.13967,0.0565 0.0595,0.26439 0.16858,0.17596 0.40087,0.2406 0.40087,0.11156 z m -1.651,-1.25168 c 0,-0.0735 -0.26067,-0.22027 -0.30771,-0.17323 -0.0227,0.0227 0.0141,0.0819 0.0818,0.1314 0.13587,0.0993 0.22589,0.11601 0.22589,0.0418 z m -1.25899,-2.07847 c 0.40604,-0.34829 0.66543,-0.54031 0.72988,-0.54031 0.0297,0 0.0919,-0.0605 0.13805,-0.13448 0.15142,-0.24246 -0.0157,-0.2614 -0.31216,-0.0354 -0.15457,0.11783 -0.36675,0.25868 -0.47153,0.31301 -0.10477,0.0543 -0.25977,0.17293 -0.34444,0.26356 -0.0847,0.0906 -0.20262,0.16478 -0.2621,0.16478 -0.0595,0 -0.14187,0.0406 -0.18308,0.0903 l -0.0749,0.0903 0.11159,0.13033 0.11159,0.13033 0.13017,-0.10892 c 0.0716,-0.0599 0.26372,-0.22347 0.42694,-0.36347 z m -7.25041,-4.33443 c -2.2e-4,-0.0611 -0.0788,-0.15921 -0.17463,-0.21799 -0.33173,-0.20347 -0.92748,-0.63043 -1.13997,-0.817 -0.11738,-0.10306 -0.25529,-0.18739 -0.30646,-0.18739 -0.17583,0 -0.0928,0.23912 0.14509,0.41774 0.13096,0.0983 0.253,0.19996 0.27118,0.22583 0.21654,0.3081 1.20553,0.78323 1.20479,0.57881 z m 13.94357,-6.16511 c -0.13559,-0.0265 -0.19072,0.0216 -0.13263,0.11559 0.0314,0.0508 0.0718,0.0475 0.14325,-0.0117 l 0.0995,-0.0825 z m -1.15261,8.14948 c 5e-5,-0.76835 0.009,-1.07394 0.0204,-0.6791 0.0112,0.39484 0.0111,1.02349 -9e-5,1.397 -0.0112,0.37351 -0.0203,0.0505 -0.0203,-0.7179 z m 0.88947,-0.4445 c -4e-5,-0.87312 0.009,-1.23912 0.0199,-0.81332 0.011,0.4258 0.011,1.14018 8e-5,1.5875 -0.0109,0.44733 -0.0199,0.099 -0.0199,-0.77418 z m -2.74466,0.24442 c 0.14938,-0.19125 0.5784,-0.59367 0.63291,-0.59367 0.0295,0 0.22414,-0.11637 0.43251,-0.2586 0.22071,-0.15066 0.43465,-0.25006 0.51253,-0.23812 l 0.13368,0.0205 -0.11638,0.11198 c -0.064,0.0616 -0.27353,0.21524 -0.46562,0.34144 -0.19209,0.12621 -0.44212,0.31717 -0.55562,0.42436 -0.11351,0.10719 -0.20638,0.17337 -0.20638,0.14708 0,-0.0263 -0.0635,-0.003 -0.14113,0.051 -0.0776,0.0544 -0.17876,0.0988 -0.22475,0.0988 h -0.0836 z m 0.50302,-0.92818 c -0.2874,-0.28739 0.47485,-1.10944 0.97586,-1.05242 l 0.1905,0.0217 0.02,0.17343 0.02,0.17342 -0.30572,0.1877 c -0.16815,0.10323 -0.4234,0.27328 -0.56722,0.37789 l -0.26148,0.19019 z m 1.34241,-0.55449 c 0,-0.15716 0.0124,-0.22145 0.0275,-0.14287 0.0151,0.0786 0.0151,0.20717 0,0.28575 -0.0151,0.0786 -0.0275,0.0143 -0.0275,-0.14288 z m 1.0622,-0.41275 c 0,-0.0529 0.0564,-0.0952 0.127,-0.0952 0.0699,0 0.127,0.0303 0.127,0.0673 0,0.037 -0.0286,0.0496 -0.0635,0.028 -0.0349,-0.0216 -0.0635,-0.009 -0.0635,0.028 0,0.037 -0.0286,0.0672 -0.0635,0.0672 -0.0349,0 -0.0635,-0.0429 -0.0635,-0.0953 z"
         id="path2" /><path
         style="fill:#000000"
         d="m 112.85536,145.53299 c 0.0756,-0.21694 0.0504,-3.67799 -0.028,-3.83803 l -0.0544,-0.11113 h 1.56255 1.56254 v 0.381 0.381 l -0.24254,-0.24253 c -0.30782,-0.30782 -0.65032,-0.40456 -1.34496,-0.37989 l -0.53975,0.0192 v 0.889 0.889 l 0.45239,0.0185 0.45239,0.0185 0.19848,-0.16702 0.19849,-0.16702 v 0.38451 0.3845 l -0.20637,-0.11975 c -0.13375,-0.0776 -0.36282,-0.12714 -0.65088,-0.14074 l -0.4445,-0.021 -0.0176,0.93663 -0.0176,0.93662 0.58907,-3.5e-4 c 0.73808,-4.4e-4 0.98637,-0.0689 1.27825,-0.35237 l 0.23157,-0.22489 v 0.35231 0.3523 h -1.5207 -1.52069 z m 8.86086,0.0863 c 0.0792,-0.0554 0.46889,-0.85075 0.9802,-2.00025 1.01225,-2.27566 0.74984,-2.24865 1.7751,-0.18272 0.47097,0.94903 0.94899,1.84914 1.06227,2.00025 l 0.20595,0.27475 h -0.54361 -0.54361 l 0.0391,-0.12303 c 0.0237,-0.0745 -0.0321,-0.26378 -0.14134,-0.47978 l -0.18038,-0.35674 -1.01326,-2.8e-4 -1.01326,-2.8e-4 -0.1446,0.30543 c -0.0891,0.1882 -0.13237,0.37246 -0.11271,0.48006 l 0.0319,0.17462 h -0.26655 -0.26654 z m 2.07874,-2.00033 c -0.27215,-0.52215 -0.50699,-0.93719 -0.52187,-0.92231 -0.0283,0.0283 -0.83451,1.81737 -0.83451,1.85187 0,0.0109 0.41652,0.0198 0.9256,0.0198 h 0.92561 z m 7.91619,1.92948 c 0.0348,-0.0914 0.0618,-0.92012 0.0615,-1.88912 l -3.9e-4,-1.72625 -0.0941,-0.18045 -0.0941,-0.18046 1.22164,0.0217 1.22163,0.0217 0.29781,0.1467 0.29781,0.14669 0.13081,0.27023 c 0.28971,0.59845 0.11683,1.1226 -0.4679,1.41861 l -0.34921,0.17677 0.51303,0.8255 c 0.28217,0.45403 0.57188,0.8898 0.64379,0.96838 l 0.13075,0.14287 h -0.35176 -0.35175 l -0.15956,-0.1255 c -0.0877,-0.069 -0.3845,-0.48219 -0.65944,-0.91814 l -0.49988,-0.79264 -0.30489,-0.003 -0.30488,-0.003 0.0191,0.92085 0.0191,0.92085 -0.49055,-1e-4 -0.49056,-1e-4 z m 2.11772,-1.9912 c 0.62039,-0.38342 0.58732,-1.33633 -0.0591,-1.70246 l -0.25046,-0.14187 -0.45727,-0.001 -0.45727,-10e-4 -0.019,0.98973 c -0.0223,1.163 -0.074,1.06215 0.52714,1.02816 l 0.48263,-0.0273 z m 8.39938,1.96378 0.0949,-0.1903 -0.0204,-1.81809 -0.0204,-1.81809 -0.28575,-0.003 c -0.52928,-0.006 -0.78908,0.11024 -1.03383,0.46223 l -0.10917,0.157 v -0.36338 -0.36338 h 1.87325 1.87325 v 0.35413 0.35412 l -0.16631,-0.19765 c -0.23225,-0.27601 -0.44592,-0.37041 -0.88407,-0.39058 l -0.37837,-0.0174 v 1.90754 1.90755 l 0.0871,0.10491 0.0872,0.1049 h -0.60616 -0.60616 z m 8.30876,0.12732 c 0.0726,-0.11745 0.0339,-3.89051 -0.0408,-3.98054 l -0.0697,-0.084 h 0.58355 0.58356 l -0.0519,0.14288 c -0.0285,0.0786 -0.0519,0.52342 -0.0519,0.98854 v 0.84567 l 0.79375,1.7e-4 0.79375,1.7e-4 0.0178,-0.83821 0.0178,-0.83821 -0.0986,-0.1505 -0.0986,-0.15051 h 0.61742 0.61741 l -0.0762,0.0762 -0.0762,0.0762 v 1.91135 1.91135 l 0.0762,0.0762 0.0762,0.0762 h -0.5969 -0.5969 l 0.0762,-0.0762 c 0.0522,-0.0522 0.0762,-0.36265 0.0762,-0.98425 v -0.90805 h -0.82885 -0.82884 l 0.02,0.87313 c 0.011,0.48022 0.0441,0.92313 0.0736,0.98425 l 0.0536,0.11112 h -0.55029 c -0.34767,0 -0.53596,-0.0232 -0.51137,-0.063 z"
         id="path1" /></g></g></svg>
