<?xml version="1.0" encoding="UTF-8" standalone="no"?>
<!-- Created with Inkscape (http://www.inkscape.org/) -->

<svg
   width="146.4841mm"
   height="69.172668mm"
   viewBox="0 0 146.4841 69.172668"
   version="1.1"
   id="svg1"
   xml:space="preserve"
   xmlns="http://www.w3.org/2000/svg"
   xmlns:svg="http://www.w3.org/2000/svg"><defs
     id="defs1" /><g
     id="layer1"
     transform="translate(-36.239461,-21.145361)"><path
       style="fill:#000000"
       d="m 100.08373,89.670127 c 3.01081,-2.10711 3.13065,-2.44475 3.12077,-8.79244 -0.0128,-8.24998 -0.71591,-12.64967 -2.90741,-18.19391 -0.13393,-0.33883 -0.12858,-0.33997 0.89784,-0.19119 5.5415,0.80327 14.80754,1.16398 17.06539,0.66432 0.40746,-0.0902 0.74084,-0.12908 0.74084,-0.0865 0,0.18312 -1.11185,6.713 -1.14943,6.75058 -0.0228,0.0228 -0.45269,-0.36836 -0.95522,-0.86934 l -0.91369,-0.91085 -0.84033,-0.24851 c -1.7689,-0.5231 -4.32043,-0.99701 -6.14734,-1.14177 l -0.735,-0.0582 -0.0875,0.32703 c -0.27132,1.01418 -0.47825,3.05898 -0.56647,5.59753 l -0.0566,1.62983 h 2.04881 2.0488 l 1.3275,-1.02434 c 1.21493,-0.93747 1.33004,-1.00747 1.3575,-0.8255 0.0343,0.22716 -0.15249,6.95355 -0.19423,6.99529 -0.0151,0.0151 -0.47811,-0.45072 -1.02901,-1.03504 l -1.00166,-1.06241 h -2.38465 -2.38465 l 0.0378,0.35983 c 0.0208,0.19791 0.23887,2.43005 0.4846,4.96032 l 0.44679,4.60048 1.54476,1.54644 1.54475,1.54645 -0.40057,0.0549 c -0.22031,0.0302 -2.97401,0.0549 -6.11934,0.0549 h -5.71877 z m 27.97062,-1.5538 c -8.18734,-0.9404 -10.69293,-11.44864 -4.27204,-17.91663 5.95737,-6.00109 15.57063,-3.28969 16.54566,4.66666 0.92463,7.54514 -5.12086,14.07154 -12.27362,13.24997 z m 3.97054,-3.81313 c 2.77874,-0.45091 4.85436,-3.41076 4.86616,-6.93918 0.026,-7.77331 -9.24527,-10.22525 -12.09097,-3.19765 -2.09723,5.1792 2.03629,10.97877 7.22481,10.13683 z m 33.96627,3.33811 c 0,-0.0286 0.38125,-0.48174 0.84723,-1.00692 l 0.84723,-0.95489 0.0863,-2.6549 c 0.10073,-3.09954 0.27272,-7.43297 0.47583,-11.9889 l 0.14435,-3.238 -1.12703,-1.14638 c -0.61987,-0.63051 -1.10959,-1.16382 -1.08827,-1.18514 0.0213,-0.0213 0.6502,0.001 1.39751,0.0506 0.74732,0.0491 2.38276,0.11548 3.63431,0.14746 l 2.27556,0.0581 -0.48076,0.50928 c -0.60981,0.646 -1.3291,2.80747 -0.85274,2.56251 2.13376,-1.0973 4.34045,-1.8136 7.63125,-2.47713 1.32911,-0.26799 1.22388,-0.32113 1.11407,0.56256 -0.0487,0.39184 -0.16347,1.56376 -0.25507,2.60427 -0.19905,2.26118 0.007,2.02865 -1.55467,1.75639 -2.18168,-0.38041 -4.15013,-0.21868 -6.60971,0.54304 l -0.8383,0.25962 0.0607,3.06273 c 0.0333,1.6845 0.11042,4.59598 0.17125,6.46995 l 0.11061,3.40723 0.46979,0.52977 c 0.25839,0.29138 0.77445,0.87268 1.14681,1.29178 l 0.67702,0.762 -2.3001,0.0522 c -3.24372,0.0736 -5.9831,0.084 -5.9831,0.0228 z m -16.04434,-0.20333 c -2.58924,-0.3953 -4.45089,-2.11891 -4.70803,-4.35896 -0.0481,-0.4191 -0.19153,-3.47477 -0.31871,-6.79038 l -0.23123,-6.02839 -0.75768,-0.69977 c -1.20563,-1.11349 -2.49335,-2.38253 -2.49335,-2.4572 0,-0.0377 1.9812,-0.0686 4.40267,-0.0686 2.42147,0 4.40267,0.0212 4.40267,0.0472 0,0.026 -0.49086,0.58007 -1.0908,1.23135 l -1.0908,1.18415 -0.0734,3.44648 c -0.14814,6.95903 -0.0664,7.94665 0.79531,9.60808 1.56729,3.02185 5.82104,2.10234 6.37446,-1.37793 0.12298,-0.7734 0.36317,-10.65848 0.26194,-10.78045 -0.0482,-0.0581 -0.54518,-0.46613 -1.10439,-0.90675 -0.5592,-0.44062 -1.01844,-0.82356 -1.02054,-0.85097 -0.004,-0.0538 8.29537,-0.18821 8.34833,-0.13524 0.0176,0.0176 -0.48284,0.50453 -1.112,1.08217 l -1.14391,1.05024 -0.003,4.02167 c -0.007,8.72778 -0.11295,9.43862 -1.60234,10.77642 -1.56365,1.40449 -5.37906,2.38179 -7.83489,2.00687 z m -19.09233,-28.39601 c 0,-0.0187 -0.45736,-1.68513 -1.01635,-3.70311 -1.17238,-4.23229 -1.13721,-3.92043 -0.3802,-3.37122 1.93194,1.40162 3.54181,2.19839 4.43705,2.19601 3.45981,-0.009 4.97608,-2.02115 3.33719,-4.42825 -0.48327,-0.7098 -1.39655,-1.498086 -3.88002,-3.349006 -4.39041,-3.27215 -5.13663,-4.38118 -5.01474,-7.4528 0.20096,-5.06416 3.41937,-6.88277 9.62379,-5.43807 l 0.69127,0.16096 0.73651,-0.57292 c 0.40507,-0.31511 1.02225,-0.82418 1.3715,-1.13127 0.81883,-0.71999 0.795,-0.73404 0.73381,0.43257 -0.0287,0.54716 -0.0982,2.64266 -0.15435,4.65666 -0.0562,2.01401 -0.12623,3.66184 -0.15563,3.66184 -0.0294,0 -0.58446,-0.73967 -1.23347,-1.6437 l -1.18003,-1.6437 -1.143,-0.59302 c -2.40463,-1.24759 -3.91644,-0.99004 -4.80096,0.81787 -0.88042,1.7995 0.18667,3.30646 5.64763,7.97568 3.3112,2.831126 3.6013,3.208406 3.93397,5.116036 0.93356,5.35345 -2.70261,8.02456 -8.88815,6.52918 l -0.81097,-0.19605 -0.85855,1.00518 c -0.74215,0.86889 -0.9963,1.11662 -0.9963,0.97113 z m -12.02267,-0.86379 c 0,-0.0281 0.31085,-0.49487 0.69077,-1.03716 0.37993,-0.5423 0.76333,-1.0905 0.852,-1.21822 0.10077,-0.14514 0.11954,-0.21695 0.0501,-0.19151 -0.15502,0.0568 -4.0058,0.68669 -4.95996,0.81136 -8.83274,1.15405 -12.36509,-8.582056 -4.88521,-13.464976 2.39367,-1.5626 6.78411,-1.45644 10.50393,0.254 0.40074,0.18426 0.74386,0.33502 0.76251,0.33502 0.0186,0 0.0339,-0.18777 0.0339,-0.41728 0,-0.2295 0.0804,-1.11532 0.17859,-1.9685 0.74479,-6.46934 -3.84785,-8.46766 -9.74592,-4.24059 -0.8822,0.63226 -1.5763,1.07645 -1.58914,1.01697 -0.0499,-0.23119 -0.67901,-8.15108 -0.64981,-8.18105 0.0172,-0.0177 0.685,0.59405 1.48396,1.35937 l 1.45267,1.39149 1.06933,-0.23479 c 6.84751,-1.50351 9.83904,-0.90315 11.11427,2.23046 1.25128,3.07475 1.33494,11.01529 0.19096,18.124666 l -0.21461,1.33376 0.8242,1.77784 c 0.4533,0.97782 0.80836,1.79099 0.78902,1.80706 -0.0969,0.0805 -7.95152,0.58634 -7.95152,0.51208 z m -0.25427,-4.76978 c 4.7187,-1.38683 3.58498,-7.184776 -1.65073,-8.441996 -6.25905,-1.50294 -9.93711,6.083566 -3.97083,8.190406 1.55124,0.54778 4.20902,0.66673 5.62156,0.25159 z m 37.63109,4.31865 c 0.0268,-0.0434 0.67679,-0.54178 1.44433,-1.10745 l 1.39552,-1.02848 v -9.685826 -9.68583 l -0.33859,-0.17273 c -0.18623,-0.095 -0.7197,-0.52354 -1.18549,-0.9523 -0.97829,-0.90049 -0.9953,-0.85839 0.38108,-0.94318 0.51223,-0.0316 2.30076,-0.17226 3.97451,-0.31268 1.67375,-0.14042 3.13709,-0.24396 3.25188,-0.23009 0.19607,0.0237 -0.52045,0.73911 -1.90624,1.90331 l -0.18319,0.1539 -0.0933,8.84767 c -0.0513,4.866206 -0.0927,9.384786 -0.092,10.041276 l 0.001,1.19362 0.80204,0.92305 c 0.44112,0.50767 0.80307,0.94546 0.80433,0.97286 0.002,0.054 -4.57312,0.16148 -6.88187,0.16171 -0.85881,9e-5 -1.40381,-0.0312 -1.37435,-0.0788 z m 22.39785,-0.9375 -2.07433,-0.84049 -1.61175,0.0899 c -4.8232,0.26909 -6.82861,-0.95735 -8.16767,-4.99504 -1.68086,-5.068326 -0.50572,-11.335506 2.80191,-14.943016 1.71552,-1.87105 3.28685,-2.39941 7.71774,-2.59514 l 1.84966,-0.0817 1.78641,-0.76495 c 0.98253,-0.42072 1.79919,-0.75217 1.8148,-0.73656 0.0379,0.0379 -3.46984,8.10077 -3.5241,8.10057 -0.0233,-9e-5 -0.26005,-0.37153 -0.52614,-0.82544 l -0.48381,-0.82529 -1.12486,-0.48128 c -6.21137,-2.65759 -9.41988,11.952386 -3.32619,15.145846 2.15676,1.13028 3.77053,0.74958 5.20495,-1.22788 0.33652,-0.46391 0.51005,-0.62469 0.51005,-0.47257 0,0.0638 1.34621,5.9544 1.40595,6.15199 0.07,0.23158 -0.0411,0.1971 -2.25262,-0.69897 z m -110.405335,0.25691 c 0,-0.0408 0.345105,-0.59563 0.7669,-1.23288 0.924583,-1.39688 1.070797,-1.28388 -1.152187,-0.89048 -3.817675,0.6756 -4.888367,0.70948 -6.614512,0.20926 -5.900871,-1.71001 -7.07003,-7.918936 -2.321133,-12.326606 2.679271,-2.48675 7.328163,-2.76899 11.457074,-0.69557 0.406528,0.20415 0.758953,0.37118 0.783167,0.37118 0.02421,0 0.04433,-0.31433 0.0447,-0.6985 3.72e-4,-0.38418 0.05752,-1.15426 0.127,-1.71129 0.79713,-6.39087 -3.614706,-8.50824 -9.270405,-4.44913 -1.458068,1.04646 -1.214824,1.51418 -1.746802,-3.3588 -0.397417,-3.64039 -0.453064,-4.31328 -0.344728,-4.16856 0.08574,0.11454 2.472426,3.01833 2.556565,3.11048 0.08414,0.0921 0.339322,0.0594 1.447753,-0.18572 6.156115,-1.36145 8.985322,-0.83319 10.423189,1.94621 1.533065,2.96341 1.607559,9.52941 0.204778,18.049626 l -0.310841,1.88799 0.787664,1.78503 c 0.433215,0.98177 0.773747,1.79895 0.756736,1.81596 -0.01701,0.017 -1.551851,0.14413 -3.410756,0.28249 -1.858906,0.13836 -3.560804,0.27001 -3.781996,0.29256 -0.221192,0.0225 -0.402167,0.008 -0.402167,-0.0332 z m -1.656359,-4.57772 c 6.420105,-0.6088 5.209042,-8.561746 -1.349307,-8.860776 -3.162689,-0.1442 -5.545667,1.87719 -5.545667,4.7042 0,2.461966 1.96514,3.885876 5.842,4.233016 0.06985,0.006 0.543688,-0.0282 1.052974,-0.0764 z m 83.021024,4.55281 c -2.10578,-0.0922 -1.96579,-0.0485 -1.62594,-0.50729 0.14638,-0.19758 0.36139,-0.49298 0.47782,-0.65644 l 0.21169,-0.2972 -0.54173,-11.585346 c -0.29795,-6.37195 -0.55397,-11.59712 -0.56895,-11.6115 -0.015,-0.0144 -0.71302,0.0262 -1.55122,0.0901 -0.8382,0.064 -1.65969,0.11745 -1.82554,0.11887 l -0.30154,0.003 -0.22864,-1.03717 c -0.12576,-0.57044 -0.25168,-1.12289 -0.27984,-1.22767 l -0.0512,-0.1905 h 1.87039 1.87039 l 0.0233,-1.333 0.0233,-1.333 2.19056,-0.99905 c 1.2048,-0.54948 2.20022,-0.98785 2.21203,-0.97416 0.0118,0.0137 -0.0272,0.63448 -0.0867,1.37955 -0.0595,0.74506 -0.13271,1.71175 -0.16269,2.14819 l -0.0545,0.79352 0.82933,-0.0565 c 0.45613,-0.0311 1.29892,-0.0964 1.87287,-0.14509 1.28864,-0.10942 1.22049,-0.26814 0.63857,1.48721 l -0.49316,1.48764 h -1.50465 -1.50464 l -9e-5,2.30716 c -5e-5,1.26894 0.0401,6.25052 0.0893,11.07017 l 0.0894,8.762996 0.38769,0.59267 c 0.21323,0.32596 0.57309,0.84497 0.79968,1.15335 0.2266,0.30838 0.412,0.58461 0.412,0.61384 0,0.0647 -0.82315,0.0508 -3.21734,-0.054 z M 36.662822,56.690127 c 3.653233,-3.10487 3.932092,-3.88688 3.934574,-11.033766 0.0034,-9.7235 -0.575503,-15.12701 -2.310672,-21.56884 -0.435876,-1.61819 -0.764598,-2.94216 -0.730493,-2.94216 0.0341,0 0.72334,0.11347 1.531633,0.25215 3.895581,0.6684 8.197412,1.01275 12.772625,1.02242 2.47192,0.005 3.147576,-0.0427 4.425366,-0.3136 0.361734,-0.0767 0.681522,-0.11564 0.710639,-0.0865 0.04788,0.0479 -1.05963,8.86115 -1.122984,8.93639 -0.01475,0.0175 -0.604282,-0.52302 -1.310082,-1.20118 l -1.283273,-1.23302 -0.985,-0.34988 c -2.20744,-0.78408 -6.476121,-1.69086 -6.736069,-1.43092 -0.234839,0.23484 -0.637449,5.40888 -0.640092,8.22599 l -0.0012,1.24883 h 2.012811 2.01281 l 1.47969,-1.31035 c 0.813829,-0.7207 1.513753,-1.31125 1.555386,-1.31233 0.04397,-0.001 0.05298,0.96495 0.0215,2.30518 -0.02981,1.26894 -0.07902,3.3848 -0.109343,4.7019 -0.03033,1.3171 -0.08272,2.3839 -0.116436,2.37067 -0.03371,-0.0132 -0.567673,-0.62414 -1.186579,-1.35757 l -1.125284,-1.3335 h -2.40348 -2.403479 l 0.05007,0.48684 c 0.06325,0.6149 0.889668,11.550926 0.889668,11.772976 0,0.0905 0.743382,1.10873 1.65196,2.26282 0.908578,1.15408 1.642003,2.10692 1.629833,2.11741 -0.01217,0.0105 -2.860577,0.044 -6.329793,0.0745 l -6.307667,0.0554 z m 52.069998,-0.89441 c 0.0931,-0.0911 0.68833,-0.60894 1.32265,-1.15075 l 1.15332,-0.9851 0.0583,-1.63109 c 0.032,-0.8971 0.11312,-2.81219 0.18014,-4.255756 0.27798,-5.98706 0.15944,-9.12171 -0.38579,-10.20181 -0.9076,-1.79794 -3.506422,-2.19403 -5.214119,-0.7947 l -0.374144,0.30658 v 7.47862 7.478616 l 0.887822,0.61213 c 0.488303,0.33668 0.872117,0.62785 0.852922,0.64704 -0.05557,0.0556 -6.421859,0.87105 -6.605111,0.84607 -0.124476,-0.017 0.08124,-0.24238 0.831928,-0.91155 0.967378,-0.86233 0.996044,-0.89789 0.955599,-1.18533 -0.02293,-0.16298 -0.338866,-4.166716 -0.702073,-8.897196 l -0.660376,-8.60087 -1.126107,-1.0088 c -0.619359,-0.55484 -1.246909,-1.11278 -1.394555,-1.23987 -0.368773,-0.31744 -0.63815,-0.26161 3.994149,-0.82781 4.940837,-0.60392 4.508592,-0.76752 3.045714,1.15276 -0.664436,0.87218 -1.135472,1.55793 -1.046748,1.52388 7.494829,-2.87603 10.405289,-2.69828 11.276049,0.68865 0.47552,1.8496 -0.0861,10.88178 -1.037,16.677286 l -0.20374,1.24176 0.87688,1.4581 0.87689,1.4581 -0.77562,0.0479 c -0.42659,0.0263 -1.57572,0.0683 -2.55362,0.0933 -0.9779,0.025 -2.36855,0.0679 -3.09034,0.0954 -1.3035,0.0497 -1.31119,0.0489 -1.143,-0.11559 z m 13.589,-1.04656 c -0.86148,-0.0374 -1.79196,-0.0792 -2.06773,-0.093 l -0.5014,-0.0251 0.56058,-0.65896 0.56058,-0.65896 -0.0463,-0.6957 c -0.0255,-0.38264 -0.30159,-5.523556 -0.61362,-11.424256 -0.31204,-5.9007 -0.58553,-10.74674 -0.60776,-10.76897 -0.0222,-0.0222 -0.77986,0.0152 -1.68361,0.0831 -1.92905,0.14501 -1.69356,0.29022 -2.03736,-1.25628 -0.33512,-1.50746 -0.45385,-1.46333 2.77477,-1.0314 l 0.35983,0.0481 v -1.31719 -1.31719 l 1.8415,-0.89485 c 2.03274,-0.98777 3.22362,-1.52355 3.26625,-1.46947 0.0153,0.0194 -0.02,0.58778 -0.0786,1.26299 -0.0585,0.67522 -0.13368,1.70036 -0.16702,2.2781 l -0.0606,1.05042 0.92239,-0.0654 c 2.20959,-0.15659 2.65958,-0.17168 2.62892,-0.0881 -0.0171,0.0466 -0.27229,0.72285 -0.56711,1.50284 l -0.53603,1.41816 h -1.33428 -1.33428 l 0.0424,5.99017 c 0.0233,3.29459 0.0758,8.22953 0.11672,10.96653 l 0.0743,4.976356 0.7042,0.88959 c 0.3873,0.48928 0.7948,1.00264 0.90555,1.14081 l 0.20135,0.25121 -0.87869,-0.0128 c -0.48327,-0.007 -1.58353,-0.0434 -2.44502,-0.0807 z m 57.92017,-24.228216 c -1.1234,-0.57733 -0.55532,-2.98909 0.87703,-3.72344 2.07737,-1.06504 3.41499,1.24963 1.77266,3.06749 -0.60549,0.67021 -1.9664,1.00711 -2.64969,0.65595 z"
       id="path1" /></g></svg>
